<svg xmlns="http://www.w3.org/2000/svg" viewBox="0 0 57 57.72"><defs><style>.cls-1{fill:#dad7c5;}</style></defs><title>Asset 3</title><g id="Layer_2" data-name="Layer 2"><g id="Guides"><path class="cls-1" d="M56.11,0H.89A.91.91,0,0,0,0,.92V56.8a.91.91,0,0,0,.89.92H56.11A.91.91,0,0,0,57,56.8V.92A.91.91,0,0,0,56.11,0Zm-.89,55.89H1.78V13.6H55.22V55.89Zm0-44.12H1.78V1.84H55.22v9.93Z"/><path class="cls-1" d="M47.54,3.92H37.07a.92.92,0,0,0,0,1.84H47.54a.92.92,0,0,0,0-1.84Z"/><path class="cls-1" d="M52.3,3.92H50.4a.92.92,0,0,0,0,1.84h1.9a.92.92,0,0,0,0-1.84Z"/><path class="cls-1" d="M29.45,2.94a3.64,3.64,0,0,0-1.25.22h0a3.9,3.9,0,0,0,0,7.28h0a3.64,3.64,0,0,0,1.25.22A3.81,3.81,0,0,0,33.2,6.8,3.81,3.81,0,0,0,29.45,2.94Zm0,5.88a1.91,1.91,0,0,1-.65-.12h0a2,2,0,0,1,0-3.81h0a1.91,1.91,0,0,1,.65-.12,2,2,0,0,1,0,4Z"/><path class="cls-1" d="M19,2.94A3.81,3.81,0,0,0,15.23,6.8a3.75,3.75,0,1,0,7.5,0A3.81,3.81,0,0,0,19,2.94Zm0,5.88a2,2,0,1,1,2-2A2,2,0,0,1,19,8.82Z"/><path class="cls-1" d="M8.51,2.94A3.81,3.81,0,0,0,4.76,6.8a3.81,3.81,0,0,0,3.75,3.86A3.81,3.81,0,0,0,12.26,6.8,3.81,3.81,0,0,0,8.51,2.94Zm0,5.88a2,2,0,1,1,2-2A2,2,0,0,1,8.51,8.82Z"/><path class="cls-1" d="M53.49,24.11,44.06,14.4a.87.87,0,0,0-1.26,0l-6,6.19H8a.92.92,0,0,0,0,1.84H35l-7.14,7.35-6.31,6.5H8a.92.92,0,0,0,0,1.84H19.78l-1.92,2h0l-.05.06,0,0,0,0,0,0,0,0,0,0,0,0,0,.06v0l0,.07h0L15.39,52H8A.92.92,0,0,0,8,53.8h8.8a.87.87,0,0,0,.61-.25l3.9-.8h0l6.73-1.39h0l.07,0h0l.05,0,0,0,0,0,0,0,0,0,0,0,0,0,.06-.05h0l.59-.61L41.41,37.85l5.35-5.51,6.73-6.93A.94.94,0,0,0,53.49,24.11ZM22.56,37.85h0l6.57-6.76,7.57-7.8,1.77,1.82-17,17.47-1.77-1.82ZM39.73,26.4l2.1,2.17-7.74,8L27.87,43l-3,3.08-2.1-2.17ZM17.26,51.71l.42-2.16,1.68,1.73Zm4.2-.87L18.1,47.38,19,42.62l1.85,1.91L24.24,48l1.85,1.91Zm18.68-14.3L27.9,49.16l-1.77-1.82,3-3.08,6.22-6.41,7.74-8,1.77,1.82Zm6-6.16-2.4-2.47-3.37-3.47L38,22l5.47-5.63,8.16,8.41Z"/><path class="cls-1" d="M43.89,18.9a.87.87,0,0,0-1.26,0L40.48,21.1a.94.94,0,0,0,0,1.3.87.87,0,0,0,1.26,0l2.14-2.21A.94.94,0,0,0,43.89,18.9Z"/></g></g></svg>