<svg xmlns="http://www.w3.org/2000/svg" viewBox="0 0 58 56.78"><defs><style>.cls-1{fill:#dad7c5;}</style></defs><title>Asset 4</title><g id="Layer_2" data-name="Layer 2"><g id="Guides"><path class="cls-1" d="M48.5,17.36,37.68,9.6a.9.9,0,0,0-1.25.2.88.88,0,0,0,.2,1.24l10.82,7.76a.9.9,0,0,0,1.25-.2A.88.88,0,0,0,48.5,17.36Z"/><path class="cls-1" d="M21.85,13.12a.89.89,0,0,0-1-.73L7.61,14.45a.88.88,0,0,0,.14,1.76h.14L21.1,14.13A.89.89,0,0,0,21.85,13.12Z"/><path class="cls-1" d="M57.63,14.58,37.53.17a.9.9,0,0,0-1.25.2L27.52,12.28,26.31,4.78A.88.88,0,0,0,26,4.2.9.9,0,0,0,25.29,4L.76,7.88A.89.89,0,0,0,0,8.9L4.8,38.71a.88.88,0,0,0,.36.58.9.9,0,0,0,.53.17h.14l5.64-.88v9.49a.89.89,0,0,0,.9.88H37.2a.89.89,0,0,0,.9-.88V45.56a11.4,11.4,0,0,0,1.73-1.21l2.23,2.2-.72.71a.88.88,0,0,0,0,1.25l8.11,8a.9.9,0,0,0,1.27,0l2.7-2.67a.88.88,0,0,0,0-1.25l-8.11-8a.9.9,0,0,0-1.27,0l-.72.71-2.23-2.2a11.09,11.09,0,0,0,2.73-7.31c0-.29,0-.58,0-.88l14-19.1A.88.88,0,0,0,57.63,14.58Zm-13,31.89,6.84,6.75-1.44,1.42-6.84-6.75ZM11.46,17.86v3.62l-2.65.42A.88.88,0,0,0,9,23.66h.14l2.37-.37v5.85L10,29.36a.88.88,0,0,0,.14,1.76h.14l1.17-.18v5.85l-5,.79L1.92,9.49,24.68,5.93,26,14.31l-2,2.67H12.36A.89.89,0,0,0,11.46,17.86ZM36.3,47.17h-23V18.75h23V25.2a11.42,11.42,0,0,0-3.88-.67l-.75,0-.21,0H18.09a.88.88,0,1,0,0,1.77h8.19a11.39,11.39,0,0,0-2.6,2.26,11.12,11.12,0,0,0-2,3.52H18.09a.88.88,0,1,0,0,1.77h3.1A11.15,11.15,0,0,0,21,35.79a11,11,0,0,0,.68,3.83h-3.6a.88.88,0,1,0,0,1.77h4.44a11.5,11.5,0,0,0,13.77,5v.79Zm2.92-4.67h0a9.68,9.68,0,0,1-15.36-2.4h0a9.29,9.29,0,0,1-1-4.31,9.4,9.4,0,0,1,2.24-6.09,9.7,9.7,0,0,1,11.74-2.36A9.46,9.46,0,0,1,42,34.75h0a9.55,9.55,0,0,1,.06,1A9.37,9.37,0,0,1,39.22,42.5Zm4.12-10A11.25,11.25,0,0,0,38.09,26V21.41L43,24.9a.9.9,0,0,0,1.25-.2.88.88,0,0,0-.2-1.24l-5.92-4.25V17.86a.89.89,0,0,0-.9-.88H35l-1.77-1.27a.9.9,0,0,0-1.25.2A.88.88,0,0,0,32,17H26.28l1.42-1.93h0L37.2,2.12,55.85,15.49Z"/><path class="cls-1" d="M32.42,28.3A7.49,7.49,0,1,0,40,35.79,7.54,7.54,0,0,0,32.42,28.3Zm0,13.21a5.72,5.72,0,1,1,5.79-5.72A5.76,5.76,0,0,1,32.42,41.51Z"/><path class="cls-1" d="M35,35.63a.9.9,0,0,0-1.27,0L31.31,38a.88.88,0,0,0,0,1.25.9.9,0,0,0,1.27,0L35,36.88A.88.88,0,0,0,35,35.63Z"/><path class="cls-1" d="M34,31.86a.9.9,0,0,0-1.27,0l-2.63,2.59a.88.88,0,0,0,0,1.25.9.9,0,0,0,1.27,0L34,33.11A.88.88,0,0,0,34,31.86Z"/></g></g></svg>