<svg xmlns="http://www.w3.org/2000/svg" viewBox="0 0 56 59.45"><defs><style>.cls-1{fill:#dad7c5;}</style></defs><title>Asset 5</title><g id="Layer_2" data-name="Layer 2"><g id="Guides"><path class="cls-1" d="M39.73,31.54a.82.82,0,0,0-1.23.15,14.48,14.48,0,0,1-1,1.25A13.69,13.69,0,0,1,35,35.08a1,1,0,0,0-.29,1.32.86.86,0,0,0,.75.46.82.82,0,0,0,.46-.14,15.48,15.48,0,0,0,2.78-2.41,16.41,16.41,0,0,0,1.15-1.41A1,1,0,0,0,39.73,31.54Z"/><path class="cls-1" d="M42.26,21.57a.92.92,0,0,0-.88,1,16,16,0,0,1-1.06,5.79,1,1,0,0,0,.46,1.26.81.81,0,0,0,.34.08.88.88,0,0,0,.81-.59,18.06,18.06,0,0,0,1.2-6.54A.92.92,0,0,0,42.26,21.57Z"/><path class="cls-1" d="M48.11,20a7.21,7.21,0,0,0-1.46.15V18.36h1.93a.92.92,0,0,0,.88-1V11.75a.92.92,0,0,0-.88-1H7.42a.92.92,0,0,0-.88,1V17.4a.92.92,0,0,0,.88,1H9.35v1.82A7.21,7.21,0,0,0,7.89,20C3.54,20,0,23.92,0,28.7s3.54,8.67,7.89,8.67a7.49,7.49,0,0,0,5.34-2.29,18.42,18.42,0,0,0,11.55,7.64v8.44a18.34,18.34,0,0,0-10.86,6.7,1,1,0,0,0-.14,1,.88.88,0,0,0,.8.57H41.41a.88.88,0,0,0,.8-.57,1,1,0,0,0-.14-1,18.34,18.34,0,0,0-10.86-6.7V42.71a18.42,18.42,0,0,0,11.55-7.64,7.49,7.49,0,0,0,5.34,2.29c4.35,0,7.89-3.89,7.89-8.67S52.46,20,48.11,20ZM8.3,16.44V12.71H47.7v3.72H8.3Zm39.81,9.63a2.64,2.64,0,0,1,0,5.26,2.48,2.48,0,0,1-2.38-2.4c.17-.58.32-1.18.45-1.79A2.33,2.33,0,0,1,48.11,26.07ZM10.27,28.93a2.48,2.48,0,0,1-2.38,2.4,2.64,2.64,0,0,1,0-5.26,2.33,2.33,0,0,1,1.93,1.08C10,27.75,10.1,28.35,10.27,28.93ZM7.89,35.44c-3.38,0-6.14-3-6.14-6.74S4.51,22,7.89,22a5.62,5.62,0,0,1,1.46.19v.38c0,.64,0,1.29.08,1.93a3.83,3.83,0,0,0-1.54-.33A4.37,4.37,0,0,0,3.74,28.7a4.37,4.37,0,0,0,4.15,4.56,4,4,0,0,0,3.31-1.8,21.08,21.08,0,0,0,1,2A5.85,5.85,0,0,1,7.89,35.44ZM39.31,57.52H16.69a16.28,16.28,0,0,1,9.09-4.59.94.94,0,0,0,.76-1V43h2.92v9a.94.94,0,0,0,.76,1A16.28,16.28,0,0,1,39.31,57.52ZM42,33h0a16.51,16.51,0,0,1-14,8.06A16.51,16.51,0,0,1,14,33h0A19.22,19.22,0,0,1,12,28.51a20.07,20.07,0,0,1-.49-2h0a20.64,20.64,0,0,1-.39-4V18.36H44.89v4.17a20.63,20.63,0,0,1-.39,4h0a20.08,20.08,0,0,1-.49,2A19.22,19.22,0,0,1,42,33Zm6.15,2.41a5.85,5.85,0,0,1-4.33-2,21.05,21.05,0,0,0,1-2,4,4,0,0,0,3.31,1.8,4.37,4.37,0,0,0,4.15-4.56,4.37,4.37,0,0,0-4.15-4.56,3.83,3.83,0,0,0-1.54.33c.05-.64.08-1.29.08-1.93v-.38A5.61,5.61,0,0,1,48.11,22c3.38,0,6.14,3,6.14,6.74S51.49,35.44,48.11,35.44Z"/><path class="cls-1" d="M36.31,26.84a.89.89,0,0,0-.83-.65h-5l-1.66-5a.85.85,0,0,0-1.65,0l-1.66,5h-5a.89.89,0,0,0-.83.65A1,1,0,0,0,20,27.91L24.2,31.6l-1.25,5a1,1,0,0,0,.36,1.05.81.81,0,0,0,1,0L28,34.51l3.67,3.14a.81.81,0,0,0,1,0,1,1,0,0,0,.36-1.05l-1.25-5L36,27.91A1,1,0,0,0,36.31,26.84Zm-6,3.64a1,1,0,0,0-.3,1l.71,2.86-2.13-1.82a.82.82,0,0,0-1.08,0l-2.13,1.82L26,31.49a1,1,0,0,0-.3-1L23,28.12h3.1a.89.89,0,0,0,.82-.63l1-3.16,1,3.16a.89.89,0,0,0,.82.63H33Z"/><path class="cls-1" d="M30.34,2.57H28.88V1a.88.88,0,1,0-1.75,0V2.57H25.66a.92.92,0,0,0-.88,1,.92.92,0,0,0,.88,1h1.46V6.1a.88.88,0,1,0,1.75,0V4.49h1.46a.92.92,0,0,0,.88-1A.92.92,0,0,0,30.34,2.57Z"/><path class="cls-1" d="M43.43,2.57H42V1a.88.88,0,1,0-1.75,0V2.57H38.75a.92.92,0,0,0-.88,1,.92.92,0,0,0,.88,1h1.46V6.1A.88.88,0,1,0,42,6.1V4.49h1.46a.92.92,0,0,0,.88-1A.92.92,0,0,0,43.43,2.57Z"/><path class="cls-1" d="M18.18,2.57H16.72V1A.88.88,0,1,0,15,1V2.57H13.5a.92.92,0,0,0-.88,1,.92.92,0,0,0,.88,1H15V6.1a.88.88,0,1,0,1.75,0V4.49h1.46a.92.92,0,0,0,.88-1A.92.92,0,0,0,18.18,2.57Z"/></g></g></svg>